<?xml version="1.0" encoding="UTF-8"?>
<!DOCTYPE svg PUBLIC "-//W3C//DTD SVG 1.1//EN" "http://www.w3.org/Graphics/SVG/1.1/DTD/svg11.dtd">
<svg xmlns="http://www.w3.org/2000/svg" version="1.1" width="1024px" height="1024px" style="shape-rendering:geometricPrecision; text-rendering:geometricPrecision; image-rendering:optimizeQuality; fill-rule:evenodd; clip-rule:evenodd" xmlns:xlink="http://www.w3.org/1999/xlink">
<g><path style="opacity:1" fill="#ebeaeb" d="M -0.5,-0.5 C 340.833,-0.5 682.167,-0.5 1023.5,-0.5C 1023.5,340.833 1023.5,682.167 1023.5,1023.5C 682.167,1023.5 340.833,1023.5 -0.5,1023.5C -0.5,682.167 -0.5,340.833 -0.5,-0.5 Z"/></g>
<g><path style="opacity:1" fill="#040304" d="M 614.5,624.5 C 576.221,608.23 536.221,601.23 494.5,603.5C 489.269,603.444 484.269,604.111 479.5,605.5C 455.74,607.772 433.073,613.772 411.5,623.5C 409.821,623.892 408.154,624.392 406.5,625C 375.502,625.5 344.502,625.667 313.5,625.5C 325.699,589.44 347.365,560.44 378.5,538.5C 338.574,497.176 329.741,449.843 352,396.5C 356.047,388.904 360.214,381.404 364.5,374C 345.147,360.66 336.981,342.16 340,318.5C 346.785,290.879 364.285,275.546 392.5,272.5C 415.812,273.313 432.812,283.979 443.5,304.5C 477.815,290.829 513.149,287.663 549.5,295C 559.687,297.547 569.687,300.714 579.5,304.5C 580.442,304.392 581.275,304.059 582,303.5C 594.436,279.008 614.269,269.175 641.5,274C 664.109,280.276 678.276,294.776 684,317.5C 687.014,341.632 678.514,360.466 658.5,374C 660.972,377.971 663.638,381.805 666.5,385.5C 686.434,365.722 710.434,353.722 738.5,349.5C 741.111,349.556 743.278,350.556 745,352.5C 744.423,366.676 740.09,379.676 732,391.5C 725.39,400.948 716.223,406.115 704.5,407C 721.706,415.88 737.539,426.713 752,439.5C 753.187,441.044 753.52,442.711 753,444.5C 744.901,450.627 735.734,454.127 725.5,455C 716.5,455.667 707.5,455.667 698.5,455C 693.636,453.657 688.969,451.823 684.5,449.5C 683.87,484.582 670.87,514.082 645.5,538C 676.371,560.193 698.037,589.193 710.5,625C 678.458,625.819 646.458,625.652 614.5,624.5 Z"/></g>
<g><path style="opacity:1" fill="#bbbabb" d="M 500.5,301.5 C 496.081,302.972 491.414,303.638 486.5,303.5C 490.919,302.028 495.586,301.362 500.5,301.5 Z"/></g>
<g><path style="opacity:1" fill="#f7f7f7" d="M 500.5,301.5 C 555.792,298.971 601.459,318.471 637.5,360C 553.462,334.198 469.462,334.198 385.5,360C 412.103,328.695 445.77,309.861 486.5,303.5C 491.414,303.638 496.081,302.972 500.5,301.5 Z"/></g>
<g><path style="opacity:1" fill="#eb5a56" d="M 633.5,369.5 C 633.082,370.222 632.416,370.722 631.5,371C 635.772,375.367 637.939,380.534 638,386.5C 635.617,389.273 632.783,391.439 629.5,393C 632.097,393.779 632.097,394.279 629.5,394.5C 552.236,377.596 474.903,377.263 397.5,393.5C 383.341,389.211 381.675,381.711 392.5,371C 391.584,370.722 390.918,370.222 390.5,369.5C 406.969,363.17 423.969,358.67 441.5,356C 496.822,347.372 551.822,349.039 606.5,361C 615.691,363.264 624.691,366.098 633.5,369.5 Z"/></g>
<g><path style="opacity:1" fill="#de5150" d="M 732.5,359.5 C 733.675,359.281 734.675,359.614 735.5,360.5C 732.315,372.706 726.649,383.539 718.5,393C 706.732,396.943 694.732,399.61 682.5,401C 688.808,393.688 696.475,388.355 705.5,385C 692.587,384.539 682.087,389.373 674,399.5C 671.929,397.545 671.262,395.212 672,392.5C 689.094,375.87 709.26,364.87 732.5,359.5 Z"/></g>
<g><path style="opacity:1" fill="#d34c4c" d="M 633.5,369.5 C 637.365,371.262 641.365,372.762 645.5,374C 647.286,374.785 648.786,375.951 650,377.5C 656.299,386.483 661.799,395.983 666.5,406C 654.061,402.465 641.728,398.631 629.5,394.5C 632.097,394.279 632.097,393.779 629.5,393C 632.783,391.439 635.617,389.273 638,386.5C 637.939,380.534 635.772,375.367 631.5,371C 632.416,370.722 633.082,370.222 633.5,369.5 Z"/></g>
<g><path style="opacity:1" fill="#d64b49" d="M 390.5,369.5 C 390.918,370.222 391.584,370.722 392.5,371C 381.675,381.711 383.341,389.211 397.5,393.5C 384.175,397.169 371.175,401.169 358.5,405.5C 362.675,394.181 368.675,384.014 376.5,375C 381.076,372.876 385.743,371.043 390.5,369.5 Z"/></g>
<g><path style="opacity:1" fill="#f8f8f8" d="M 673.5,438.5 C 671.583,477.231 654.583,507.398 622.5,529C 587.532,550.077 549.532,560.244 508.5,559.5C 466.556,560.017 428.556,548.183 394.5,524C 367.305,502.447 352.639,474.28 350.5,439.5C 350.331,431.834 351.998,424.667 355.5,418C 369.319,411.504 383.652,406.838 398.5,404C 386.513,423.217 386.68,442.383 399,461.5C 413.418,475.975 430.251,479.475 449.5,472C 472.519,462.981 489.019,447.148 499,424.5C 500.567,419.467 499.067,415.633 494.5,413C 483.483,406.491 472.15,400.491 460.5,395C 494.734,390.411 529.068,390.411 563.5,395C 550.103,400.776 537.603,407.943 526,416.5C 525.257,423.707 526.923,430.374 531,436.5C 547.394,463.947 571.561,476.447 603.5,474C 623.344,467.823 633.677,454.323 634.5,433.5C 634.416,422.749 631.416,412.916 625.5,404C 640.555,407.575 655.222,412.575 669.5,419C 672.046,425.229 673.379,431.729 673.5,438.5 Z"/></g>
<g><path style="opacity:1" fill="#f5f5f5" d="M 425.5,405.5 C 432.604,408.886 439.604,412.553 446.5,416.5C 439.959,422.539 438.793,429.539 443,437.5C 447.608,443.56 453.441,445.06 460.5,442C 463.5,440.333 465.833,438 467.5,435C 459.649,433.949 457.315,429.949 460.5,423C 461.833,422.333 463.167,422.333 464.5,423C 470.523,425.108 476.19,427.775 481.5,431C 475.555,442.28 466.555,449.947 454.5,454C 437.084,456.239 425.584,449.073 420,432.5C 419.333,427.5 419.333,422.5 420,417.5C 421.588,413.328 423.421,409.328 425.5,405.5 Z"/></g>
<g><path style="opacity:1" fill="#f5f5f5" d="M 561.5,433.5 C 559.396,433.201 557.396,433.534 555.5,434.5C 555.624,435.107 555.957,435.44 556.5,435.5C 562.317,444.278 569.65,445.778 578.5,440C 581.528,436.586 583.195,432.586 583.5,428C 582.016,423.544 580.182,419.378 578,415.5C 584.446,411.859 590.946,408.692 597.5,406C 606.618,418.694 606.784,431.527 598,444.5C 589.965,452.972 580.131,456.139 568.5,454C 556.397,450.231 547.73,442.564 542.5,431C 548.447,427.509 554.78,424.676 561.5,422.5C 565.254,423.852 566.421,426.518 565,430.5C 563.961,431.71 562.794,432.71 561.5,433.5 Z"/></g>
<g><path style="opacity:1" fill="#d24849" d="M 687.5,412.5 C 694.767,412.624 701.433,414.79 707.5,419C 718.882,425.56 729.549,433.06 739.5,441.5C 727.085,445.171 714.418,446.338 701.5,445C 695.532,443.849 689.866,441.849 684.5,439C 683.698,435.902 683.031,432.735 682.5,429.5C 682.833,428.833 683.167,428.167 683.5,427.5C 691.037,431.736 699.037,434.236 707.5,435C 698.853,428.01 689.853,421.51 680.5,415.5C 682.875,414.34 685.208,413.34 687.5,412.5 Z"/></g>
<g><path style="opacity:1" fill="#7c7c7d" d="M 561.5,433.5 C 559.833,434.167 558.167,434.833 556.5,435.5C 555.957,435.44 555.624,435.107 555.5,434.5C 557.396,433.534 559.396,433.201 561.5,433.5 Z"/></g>
<g><path style="opacity:1" fill="#d4d3d4" d="M 673.5,438.5 C 677.163,476.696 664.496,508.529 635.5,534C 610.779,553.474 582.779,565.808 551.5,571C 503.145,579.997 457.145,573.33 413.5,551C 369.144,526.858 348.144,489.691 350.5,439.5C 352.639,474.28 367.305,502.447 394.5,524C 428.556,548.183 466.556,560.017 508.5,559.5C 549.532,560.244 587.532,550.077 622.5,529C 654.583,507.398 671.583,477.231 673.5,438.5 Z"/></g>
<g><path style="opacity:1" fill="#1d1d1d" d="M 485.5,532.5 C 485.735,531.903 486.235,531.57 487,531.5C 494.46,534.886 502.293,536.219 510.5,535.5C 514.833,535.333 519.167,535.167 523.5,535C 528.575,533.965 533.575,532.965 538.5,532C 520.91,542.995 503.243,543.162 485.5,532.5 Z"/></g>
<g><path style="opacity:1" fill="#0a0a0a" d="M 497.5,465.5 C 510.297,464.877 522.964,465.71 535.5,468C 539.828,470.89 540.661,474.723 538,479.5C 531.579,485.925 524.579,491.591 517,496.5C 516.501,502.491 516.334,508.491 516.5,514.5C 529.959,514.844 542.292,511.344 553.5,504C 556.933,500.958 559.766,497.458 562,493.5C 558.391,507.447 549.557,516.614 535.5,521C 511.42,529.519 489.586,525.685 470,509.5C 466.353,505.176 463.52,500.343 461.5,495C 461.667,494.5 461.833,494 462,493.5C 472.975,508.569 487.808,515.402 506.5,514C 507.639,508.584 507.806,503.084 507,497.5C 501.59,493.212 496.09,489.045 490.5,485C 480.552,473.708 482.885,467.208 497.5,465.5 Z"/></g>
<g><path style="opacity:1" fill="#f9f8f8" d="M 494.5,603.5 C 536.221,601.23 576.221,608.23 614.5,624.5C 547.335,625.665 480.001,625.832 412.5,625C 411.944,624.617 411.611,624.117 411.5,623.5C 433.073,613.772 455.74,607.772 479.5,605.5C 484.731,605.556 489.731,604.889 494.5,603.5 Z"/></g>
<g><path style="opacity:1" fill="#adadac" d="M 494.5,603.5 C 489.731,604.889 484.731,605.556 479.5,605.5C 484.269,604.111 489.269,603.444 494.5,603.5 Z"/></g>
<g><path style="opacity:1" fill="#030304" d="M 274.5,652.5 C 289.837,652.333 305.17,652.5 320.5,653C 342.079,659.987 349.579,674.487 343,696.5C 339.533,704.299 334.033,710.132 326.5,714C 332.206,721.905 338.04,729.739 344,737.5C 347.209,746.641 343.875,750.974 334,750.5C 331.04,750.557 328.207,750.057 325.5,749C 316.77,738.87 308.77,728.203 301.5,717C 298.183,716.502 294.85,716.335 291.5,716.5C 291.951,726.938 291.451,737.271 290,747.5C 288.829,748.893 287.329,749.727 285.5,750C 281.833,750.667 278.167,750.667 274.5,750C 271.943,749.315 270.109,747.815 269,745.5C 268.333,716.167 268.333,686.833 269,657.5C 270.73,655.598 272.563,653.931 274.5,652.5 Z"/></g>
<g><path style="opacity:1" fill="#e85957" d="M 671.5,652.5 C 685.167,651.666 691.001,658 689,671.5C 683.553,679.654 676.386,681.487 667.5,677C 661.923,671.146 661.09,664.646 665,657.5C 666.965,655.45 669.132,653.783 671.5,652.5 Z"/></g>
<g><path style="opacity:1" fill="#050506" d="M 536.5,658.5 C 550.972,657.525 555.972,664.192 551.5,678.5C 557.509,678.334 563.509,678.501 569.5,679C 571.974,681.041 572.974,683.708 572.5,687C 572.917,690.521 571.917,693.521 569.5,696C 563.843,696.499 558.176,696.666 552.5,696.5C 552.334,706.839 552.5,717.172 553,727.5C 553.5,729.333 554.667,730.5 556.5,731C 561.167,731.333 565.833,731.667 570.5,732C 573.982,736.031 574.482,740.531 572,745.5C 566.99,749.714 561.156,751.381 554.5,750.5C 544.831,751.46 537.664,747.793 533,739.5C 532.08,736.899 531.413,734.232 531,731.5C 530.5,720.172 530.333,708.838 530.5,697.5C 518.498,699.517 513.665,694.517 516,682.5C 517.167,681.333 518.333,680.167 519.5,679C 523.152,678.501 526.818,678.335 530.5,678.5C 530.334,673.489 530.501,668.489 531,663.5C 532.73,661.598 534.563,659.931 536.5,658.5 Z"/></g>
<g><path style="opacity:1" fill="#050606" d="M 718.5,658.5 C 733.222,657.192 738.556,663.859 734.5,678.5C 740.176,678.334 745.843,678.501 751.5,679C 754.817,680.804 756.15,683.637 755.5,687.5C 755.888,690.861 754.888,693.694 752.5,696C 746.593,697.361 740.593,697.861 734.5,697.5C 734.334,707.172 734.5,716.839 735,726.5C 735.833,728.667 737.333,730.167 739.5,731C 743.833,731.333 748.167,731.667 752.5,732C 754.949,733.863 755.949,736.363 755.5,739.5C 756.173,743.281 754.839,746.114 751.5,748C 742.153,751.296 732.819,751.296 723.5,748C 717.365,744.242 713.865,738.742 713,731.5C 712.5,720.172 712.333,708.838 712.5,697.5C 700.393,698.881 695.893,693.548 699,681.5C 699.833,680.667 700.667,679.833 701.5,679C 705.152,678.501 708.818,678.335 712.5,678.5C 712.334,673.821 712.501,669.155 713,664.5C 714.36,661.977 716.193,659.977 718.5,658.5 Z"/></g>
<g><path style="opacity:1" fill="#e9e8e9" d="M 291.5,672.5 C 299.174,672.334 306.841,672.5 314.5,673C 322.73,677.166 324.563,683.332 320,691.5C 318.786,693.049 317.286,694.215 315.5,695C 307.585,696.401 299.585,696.901 291.5,696.5C 291.5,688.5 291.5,680.5 291.5,672.5 Z"/></g>
<g><path style="opacity:1" fill="#050505" d="M 382.5,677.5 C 405.191,674.087 420.358,683.087 428,704.5C 431.079,733.251 418.245,748.918 389.5,751.5C 366.719,748.882 354.719,736.049 353.5,713C 353.86,700.277 359.193,690.277 369.5,683C 373.717,680.549 378.05,678.715 382.5,677.5 Z"/></g>
<g><path style="opacity:1" fill="#040505" d="M 607.5,677.5 C 626.217,674.444 640.05,681.11 649,697.5C 651,703.833 651,710.167 649,716.5C 648.097,717.701 646.931,718.535 645.5,719C 630.822,719.167 616.155,719.667 601.5,720.5C 605.386,731.446 613.053,735.612 624.5,733C 627.503,731.834 630.17,730.167 632.5,728C 638.322,726.497 643.155,727.997 647,732.5C 647.667,734.167 647.667,735.833 647,737.5C 644.054,742.445 639.888,745.945 634.5,748C 618.992,754.071 604.658,752.071 591.5,742C 580.252,729.246 577.419,714.746 583,698.5C 588.32,688.002 596.486,681.002 607.5,677.5 Z"/></g>
<g><path style="opacity:1" fill="#060606" d="M 445.5,677.5 C 449.182,677.335 452.848,677.501 456.5,678C 458.286,678.785 459.786,679.951 461,681.5C 461.333,695.167 461.667,708.833 462,722.5C 464.875,731.501 470.708,734.001 479.5,730C 482.467,727.9 484.3,725.066 485,721.5C 485.333,708.5 485.667,695.5 486,682.5C 487.167,681.333 488.333,680.167 489.5,679C 494.167,678.333 498.833,678.333 503.5,679C 505,679.833 506.167,681 507,682.5C 507.667,703.167 507.667,723.833 507,744.5C 506.215,746.286 505.049,747.786 503.5,749C 494.939,752.774 488.605,750.607 484.5,742.5C 476.174,749.832 466.507,752.332 455.5,750C 445.6,746.405 440.434,739.239 440,728.5C 439.333,713.167 439.333,697.833 440,682.5C 441.73,680.598 443.563,678.931 445.5,677.5 Z"/></g>
<g><path style="opacity:1" fill="#e35655" d="M 668.5,690.5 C 673.844,690.334 679.177,690.501 684.5,691C 686.333,691.5 687.5,692.667 688,694.5C 688.667,710.833 688.667,727.167 688,743.5C 684.235,749.76 678.735,751.927 671.5,750C 669,748.833 667.167,747 666,744.5C 665.333,727.5 665.333,710.5 666,693.5C 667.045,692.627 667.878,691.627 668.5,690.5 Z"/></g>
<g><path style="opacity:1" fill="#e4e3e5" d="M 609.5,695.5 C 617.226,693.992 623.726,695.992 629,701.5C 630.009,703.025 630.509,704.692 630.5,706.5C 620.81,706.832 611.144,706.498 601.5,705.5C 603.112,701.232 605.779,697.898 609.5,695.5 Z"/></g>
<g><path style="opacity:1" fill="#e9e8e8" d="M 386.5,696.5 C 401.264,695.764 408.097,702.764 407,717.5C 402.926,730.952 394.426,734.785 381.5,729C 375.034,721.258 373.867,712.758 378,703.5C 380.441,700.546 383.275,698.213 386.5,696.5 Z"/></g>
</svg>
